<?xml version="1.0" encoding="utf-8"?>
<!-- Generator: Adobe Illustrator 25.0.1, SVG Export Plug-In . SVG Version: 6.00 Build 0)  -->
<svg version="1.1" id="Layer_1" xmlns="http://www.w3.org/2000/svg" xmlns:xlink="http://www.w3.org/1999/xlink" x="0px" y="0px"
	 viewBox="0 0 842 184" style="enable-background:new 0 0 842 184;" xml:space="preserve">
<style type="text/css">
	.st0{fill-rule:evenodd;clip-rule:evenodd;fill:#0079BF;}
	.st1{fill:#253858;}
</style>
<g id="Layer_1_1_">
	<desc>Created with Sketch.</desc>
</g>
<g id="Blue_BG">
</g>
<g id="Artwork">
	<g>
		<path class="st0" d="M155.7,9.7H30.1c-10.8,0-19.6,8.8-19.6,19.6V155c0,10.8,8.8,19.6,19.6,19.6h125.7c10.8,0,19.6-8.8,19.6-19.6
			V29.3C175.3,18.4,166.6,9.7,155.7,9.7z M81.5,128.4c0,3.6-2.9,6.5-6.5,6.5H47.4c-3.6,0-6.5-2.9-6.5-6.5V46.6
			c0-3.6,2.9-6.5,6.5-6.5H75c3.6,0,6.5,2.9,6.5,6.5V128.4z M144.9,90.9c0,3.6-2.9,6.5-6.5,6.5h-27.6c-3.6,0-6.5-2.9-6.5-6.5V46.6
			c0-3.6,2.9-6.5,6.5-6.5h27.6c3.6,0,6.5,2.9,6.5,6.5V90.9z"/>
		<g>
			<g>
				<g>
					<path class="st1" d="M352.2,21.8v31.9h-37.8v120.9H278v-121h-37.8V21.8H352.2z"/>
					<path class="st1" d="M398.5,174.5h-33.7V55.7h33.7v22.8c6.4-16,16.6-25.6,34.8-24.4v35.1c-23.7-1.9-34.8,4-34.8,23V174.5z"/>
					<path class="st1" d="M617.3,175.5c-22.1,0-35.9-10.7-35.9-35.6V9.7h33.9v125.6c0,7.2,4.8,9.8,10.7,9.8c1.8,0,3,0,5-0.2v29.3
						C629.1,174.8,624.1,175.5,617.3,175.5z"/>
					<path class="st1" d="M688,175.5c-22.1,0-35.9-10.7-35.9-35.6V9.7H686v125.6c0,7.2,4.8,9.8,10.7,9.8c1.8,0,3,0,5-0.2v29.3
						C699.9,174.8,694.8,175.5,688,175.5z"/>
					<path class="st1" d="M717.9,115c0-36.7,21.2-61.9,57.6-61.9c36.2,0,57.1,25.1,57.1,61.9c0,36.5-20.9,62.3-57.1,62.3
						C739,177.3,717.9,151.5,717.9,115z M750.9,115c0,17.9,7.5,32.1,24.6,32.1c16.8,0,24.1-14.2,24.1-32.1s-7.3-31.6-24.1-31.6
						C758.4,83.4,750.9,97.1,750.9,115z"/>
				</g>
			</g>
			<path class="st1" d="M478.8,125.8c6.5,0.7,17.4,1.7,28.4,1.7c25.8,0,47.6-6.9,47.6-31.9c0-24.2-22.4-42.5-49.3-42.5
				c-36.3,0-59.5,26.3-59.5,63c0,38.1,20,60.7,65.3,60.7c13.9,0,28.9-2.6,39.4-7v-28.5c-11.6,3.7-24.7,7.4-38.1,7.4
				C494.4,148.8,481.9,142.9,478.8,125.8z M504.7,79.1c9.5,0,17.2,6.5,17.2,15.3c0,11.4-12,15-25.9,15c-7,0-13.3-0.7-17.6-1.4
				c0.7-5.9,2.1-11.5,4.7-15.8C487.9,84.4,495.3,79.1,504.7,79.1z"/>
		</g>
	</g>
</g>
</svg>
